<?xml version="1.0" encoding="UTF-8" standalone="no"?>
<!-- Created with Inkscape (http://www.inkscape.org/) -->

<svg
   version="1.1"
   id="svg2124"
   xml:space="preserve"
   width="682.66669"
   height="682.66669"
   viewBox="0 0 682.66669 682.66669"
   xmlns="http://www.w3.org/2000/svg"
   xmlns:svg="http://www.w3.org/2000/svg"><defs
     id="defs2128"><clipPath
       clipPathUnits="userSpaceOnUse"
       id="clipPath2138"><path
         d="M 0,512 H 512 V 0 H 0 Z"
         id="path2136" /></clipPath></defs><g
     id="g2130"
     transform="matrix(1.3333333,0,0,-1.3333333,0,682.66667)"><g
       id="g2132"><g
         id="g2134"
         clip-path="url(#clipPath2138)"><g
           id="g2140"
           transform="translate(348.3857,256.2003)"><path
             d="m 0,0 c 0,-56.459 -37.874,-105.899 -92.385,-120.6 h -10e-4 c -54.512,-14.701 -92.385,-64.141 -92.385,-120.6 v -15"
             style="fill:none;stroke:#000000;stroke-width:30;stroke-linecap:butt;stroke-linejoin:miter;stroke-miterlimit:10;stroke-dasharray:none;stroke-opacity:1"
             id="path2142" /></g><g
           id="g2144"
           transform="translate(163.6143,256.2003)"><path
             d="m 0,0 c 0,-56.459 37.873,-105.899 92.385,-120.6 h 10e-4 c 54.512,-14.701 92.385,-64.141 92.385,-120.6 v -15"
             style="fill:none;stroke:#000000;stroke-width:30;stroke-linecap:butt;stroke-linejoin:miter;stroke-miterlimit:10;stroke-dasharray:none;stroke-opacity:1"
             id="path2146" /></g><g
           id="g2148"
           transform="translate(163.6145,255.7997)"><path
             d="m 0,0 c 0,56.46 37.873,105.899 92.385,120.6 h 10e-4 c 54.512,14.701 92.385,64.141 92.385,120.6 v 15"
             style="fill:none;stroke:#000000;stroke-width:30;stroke-linecap:butt;stroke-linejoin:miter;stroke-miterlimit:10;stroke-dasharray:none;stroke-opacity:1"
             id="path2150" /></g><g
           id="g2152"
           transform="translate(348.3855,255.7997)"><path
             d="m 0,0 c 0,56.46 -37.873,105.899 -92.385,120.6 h -10e-4 c -54.212,14.62 -91.967,63.597 -92.382,119.668 V 256.2"
             style="fill:none;stroke:#000000;stroke-width:30;stroke-linecap:butt;stroke-linejoin:miter;stroke-miterlimit:10;stroke-dasharray:none;stroke-opacity:1"
             id="path2154" /></g><g
           id="g2156"
           transform="translate(170.6667,298.6667)"><path
             d="M 0,0 H 170.667"
             style="fill:none;stroke:#000000;stroke-width:30;stroke-linecap:butt;stroke-linejoin:miter;stroke-miterlimit:10;stroke-dasharray:none;stroke-opacity:1"
             id="path2158" /></g><g
           id="g2160"
           transform="translate(170.6667,454.1332)"><path
             d="M 0,0 H 170.667"
             style="fill:none;stroke:#000000;stroke-width:30;stroke-linecap:butt;stroke-linejoin:miter;stroke-miterlimit:10;stroke-dasharray:none;stroke-opacity:1"
             id="path2162" /></g><g
           id="g2164"
           transform="translate(170.6667,57.8668)"><path
             d="M 0,0 H 170.667"
             style="fill:none;stroke:#000000;stroke-width:30;stroke-linecap:butt;stroke-linejoin:miter;stroke-miterlimit:10;stroke-dasharray:none;stroke-opacity:1"
             id="path2166" /></g><g
           id="g2168"
           transform="translate(170.6667,213.3333)"><path
             d="M 0,0 H 170.667"
             style="fill:none;stroke:#000000;stroke-width:30;stroke-linecap:butt;stroke-linejoin:miter;stroke-miterlimit:10;stroke-dasharray:none;stroke-opacity:1"
             id="path2170" /></g></g></g></g></svg>
