<svg height="512pt" viewBox="-67 0 511 512" width="512pt" xmlns="http://www.w3.org/2000/svg"><path d="m231.421875 313.464844v-95.109375h24.160156v-93.6875h-182.0625v93.6875h24.164063v95.109375l-88.527344 124.71875c-10.164062 14.320312-11.472656 32.914062-3.414062 48.519531 8.058593 15.601563 23.980468 25.296875 41.542968 25.296875h234.535156c17.5625 0 33.480469-9.695312 41.539063-25.300781 8.0625-15.601563 6.753906-34.195313-3.414063-48.519531zm-127.902344-158.796875h122.0625v33.6875h-122.0625zm97.902344 63.6875v104.671875l43.585937 61.40625c-3.433593 2.242187-7.875 4.617187-13.195312 6.320312-18.644531 5.96875-38.820312 1-59.980469-14.773437-25.0625-18.6875-47.207031-24.121094-64.761719-23.914063l20.613282-29.035156v-104.675781zm95.285156 254.578125c-2.933593 5.675781-8.5 9.066406-14.886719 9.066406h-234.535156c-6.390625 0-11.957031-3.390625-14.886718-9.066406-2.933594-5.675782-2.476563-12.175782 1.222656-17.386719l45.449218-64.027344c3.609376-2.632812 9.304688-6.007812 16.71875-7.925781 17.761719-4.597656 37.316407.933594 58.113282 16.4375 23.660156 17.640625 44.957031 23.148438 62.339844 23.148438 9.496093 0 17.824218-1.648438 24.722656-3.855469 8.722656-2.796875 15.90625-6.691407 21.429687-10.398438l33.089844 46.621094c3.695313 5.210937 4.152344 11.710937 1.222656 17.386719zm0 0"/><path d="m203.085938 96.25c26.535156 0 48.125-21.589844 48.125-48.125s-21.589844-48.125-48.125-48.125c-26.539063 0-48.125 21.589844-48.125 48.125s21.585937 48.125 48.125 48.125zm0-66.25c9.992187 0 18.125 8.132812 18.125 18.125s-8.132813 18.125-18.125 18.125c-9.996094 0-18.125-8.132812-18.125-18.125s8.128906-18.125 18.125-18.125zm0 0"/><path d="m326.109375 0c-28.949219 0-52.5 23.550781-52.5 52.5s23.550781 52.5 52.5 52.5 52.5-23.550781 52.5-52.5-23.550781-52.5-52.5-52.5zm0 75c-12.40625 0-22.5-10.09375-22.5-22.5s10.09375-22.5 22.5-22.5 22.5 10.09375 22.5 22.5-10.09375 22.5-22.5 22.5zm0 0"/></svg>