<?xml version="1.0" encoding="UTF-8" standalone="no"?>
<!-- Created with Inkscape (http://www.inkscape.org/) -->

<svg
   version="1.1"
   id="svg2064"
   xml:space="preserve"
   width="682.66669"
   height="682.66669"
   viewBox="0 0 682.66669 682.66669"
   xmlns="http://www.w3.org/2000/svg"
   xmlns:svg="http://www.w3.org/2000/svg"><defs
     id="defs2068"><clipPath
       clipPathUnits="userSpaceOnUse"
       id="clipPath2078"><path
         d="M 0,512 H 512 V 0 H 0 Z"
         id="path2076" /></clipPath><clipPath
       clipPathUnits="userSpaceOnUse"
       id="clipPath2094"><path
         d="M 0,512 H 512 V 0 H 0 Z"
         id="path2092" /></clipPath></defs><g
     id="g2070"
     transform="matrix(1.3333333,0,0,-1.3333333,0,682.66667)"><g
       id="g2072"><g
         id="g2074"
         clip-path="url(#clipPath2078)"><g
           id="g2080"
           transform="translate(256,512)"><path
             d="M 0,0 V -45"
             style="fill:none;stroke:#000000;stroke-width:30;stroke-linecap:butt;stroke-linejoin:miter;stroke-miterlimit:10;stroke-dasharray:none;stroke-opacity:1"
             id="path2082" /></g></g></g><g
       id="g2084"
       transform="translate(256,407.002)"><path
         d="M 0,0 V -332.002"
         style="fill:none;stroke:#000000;stroke-width:30;stroke-linecap:butt;stroke-linejoin:miter;stroke-miterlimit:10;stroke-dasharray:none;stroke-opacity:1"
         id="path2086" /></g><g
       id="g2088"><g
         id="g2090"
         clip-path="url(#clipPath2094)"><g
           id="g2096"
           transform="translate(346,15)"><path
             d="m 0,0 h -180 c 0,33.137 26.863,60 60,60 h 60 C -26.863,60 0,33.137 0,0 Z"
             style="fill:none;stroke:#000000;stroke-width:30;stroke-linecap:butt;stroke-linejoin:miter;stroke-miterlimit:10;stroke-dasharray:none;stroke-opacity:1"
             id="path2098" /></g><g
           id="g2100"
           transform="translate(286,437)"><path
             d="m 0,0 c 0,-16.568 -13.432,-30 -30,-30 -16.568,0 -30,13.432 -30,30 0,16.568 13.432,30 30,30 C -13.432,30 0,16.568 0,0 Z"
             style="fill:none;stroke:#000000;stroke-width:30;stroke-linecap:butt;stroke-linejoin:miter;stroke-miterlimit:10;stroke-dasharray:none;stroke-opacity:1"
             id="path2102" /></g><g
           id="g2104"
           transform="translate(16,485)"><path
             d="M 0,0 210.577,-42.115"
             style="fill:none;stroke:#000000;stroke-width:30;stroke-linecap:butt;stroke-linejoin:miter;stroke-miterlimit:10;stroke-dasharray:none;stroke-opacity:1"
             id="path2106" /></g><g
           id="g2108"
           transform="translate(285.4229,431.1152)"><path
             d="M 0,0 211.077,-42.115"
             style="fill:none;stroke:#000000;stroke-width:30;stroke-linecap:butt;stroke-linejoin:miter;stroke-miterlimit:10;stroke-dasharray:none;stroke-opacity:1"
             id="path2110" /></g><g
           id="g2112"
           transform="translate(106,467)"><path
             d="m 0,0 -60,-151 c 0,-33.137 26.863,-60 60,-60 33.137,0 60,26.863 60,60 L 0,0"
             style="fill:none;stroke:#000000;stroke-width:30;stroke-linecap:butt;stroke-linejoin:miter;stroke-miterlimit:10;stroke-dasharray:none;stroke-opacity:1"
             id="path2114" /></g><g
           id="g2116"
           transform="translate(46,316)"><path
             d="M 0,0 H 118.959"
             style="fill:none;stroke:#000000;stroke-width:30;stroke-linecap:butt;stroke-linejoin:miter;stroke-miterlimit:10;stroke-dasharray:none;stroke-opacity:1"
             id="path2118" /></g><g
           id="g2120"
           transform="translate(407,407)"><path
             d="m 0,0 -60,-151 c 0,-33.137 26.863,-60 60,-60 33.137,0 60,26.863 60,60 L 0,0"
             style="fill:none;stroke:#000000;stroke-width:30;stroke-linecap:butt;stroke-linejoin:miter;stroke-miterlimit:10;stroke-dasharray:none;stroke-opacity:1"
             id="path2122" /></g><g
           id="g2124"
           transform="translate(347,256)"><path
             d="M 0,0 H 118.959"
             style="fill:none;stroke:#000000;stroke-width:30;stroke-linecap:butt;stroke-linejoin:miter;stroke-miterlimit:10;stroke-dasharray:none;stroke-opacity:1"
             id="path2126" /></g><g
           id="g2128"
           transform="translate(151,211)"><path
             d="M 0,0 -90,-90"
             style="fill:none;stroke:#000000;stroke-width:30;stroke-linecap:butt;stroke-linejoin:miter;stroke-miterlimit:10;stroke-dasharray:none;stroke-opacity:1"
             id="path2130" /></g><g
           id="g2132"
           transform="translate(61,211)"><path
             d="M 0,0 90,-90"
             style="fill:none;stroke:#000000;stroke-width:30;stroke-linecap:butt;stroke-linejoin:miter;stroke-miterlimit:10;stroke-dasharray:none;stroke-opacity:1"
             id="path2134" /></g><g
           id="g2136"
           transform="translate(362,136)"><path
             d="m 0,0 45,-45 60,60"
             style="fill:none;stroke:#000000;stroke-width:30;stroke-linecap:butt;stroke-linejoin:miter;stroke-miterlimit:10;stroke-dasharray:none;stroke-opacity:1"
             id="path2138" /></g></g></g></g></svg>
