<?xml version="1.0" encoding="UTF-8"?>
<svg xmlns="http://www.w3.org/2000/svg" xmlns:xlink="http://www.w3.org/1999/xlink" version="1.1" id="Capa_1" x="0px" y="0px" viewBox="0 0 511 511" style="enable-background:new 0 0 511 511;" xml:space="preserve" width="512" height="512">
<g>
	<path style="fill:none;stroke:#000000;stroke-width:20;stroke-linecap:round;stroke-linejoin:round;stroke-miterlimit:10;" d="&#10;&#9;&#9;M387.259,72.534c-18.255,18.041-41.576,26.32-61.079,23.644c-2.45-19.537,6.102-42.759,24.356-60.801&#10;&#9;&#9;c16.298-16.108,36.636-24.434,54.691-24.126c3.743,0.064,6.781,3.139,6.8,6.883C412.117,36.192,403.553,56.43,387.259,72.534z"/>
	<path style="fill:none;stroke:#000000;stroke-width:20;stroke-linecap:round;stroke-linejoin:round;stroke-miterlimit:10;" d="&#10;&#9;&#9;M386.972,121.438c-18.041-18.255-41.264-26.807-60.797-24.36c-2.68,19.507,5.599,42.828,23.64,61.083&#10;&#9;&#9;c16.108,16.298,36.346,24.862,54.404,24.767c3.744-0.02,6.818-3.059,6.88-6.802C411.4,158.069,403.075,137.732,386.972,121.438z"/>
	<path style="fill:none;stroke:#000000;stroke-width:20;stroke-linecap:round;stroke-linejoin:round;stroke-miterlimit:10;" d="&#10;&#9;&#9;M276.497,71.912c-18.255,18.041-41.576,26.32-61.079,23.644c-2.45-19.537,6.102-42.759,24.356-60.801&#10;&#9;&#9;c16.298-16.108,36.636-24.434,54.691-24.126c3.743,0.064,6.781,3.139,6.8,6.883C301.355,35.571,292.791,55.808,276.497,71.912z"/>
	<path style="fill:none;stroke:#000000;stroke-width:20;stroke-linecap:round;stroke-linejoin:round;stroke-miterlimit:10;" d="&#10;&#9;&#9;M276.21,120.817c-18.041-18.255-41.264-26.807-60.797-24.36c-2.68,19.507,5.599,42.828,23.64,61.083&#10;&#9;&#9;c16.108,16.298,36.346,24.862,54.404,24.767c3.744-0.02,6.818-3.059,6.88-6.802C300.638,157.448,292.313,137.111,276.21,120.817z"/>
	<path style="fill:none;stroke:#000000;stroke-width:20;stroke-linecap:round;stroke-linejoin:round;stroke-miterlimit:10;" d="&#10;&#9;&#9;M165.735,71.291c-18.255,18.041-41.576,26.32-61.079,23.644c-2.45-19.537,6.102-42.759,24.356-60.801&#10;&#9;&#9;c16.298-16.108,36.636-24.434,54.691-24.126c3.743,0.064,6.781,3.139,6.8,6.883C190.593,34.949,182.029,55.187,165.735,71.291z"/>
	<path style="fill:none;stroke:#000000;stroke-width:20;stroke-linecap:round;stroke-linejoin:round;stroke-miterlimit:10;" d="&#10;&#9;&#9;M165.448,120.195c-18.041-18.255-41.264-26.807-60.797-24.36c-2.68,19.507,5.599,42.828,23.64,61.083&#10;&#9;&#9;c16.108,16.298,36.346,24.862,54.404,24.767c3.744-0.02,6.818-3.059,6.88-6.802C189.877,156.827,181.551,136.49,165.448,120.195z"/>
	<g>
		<path style="fill:none;stroke:#000000;stroke-width:20;stroke-linecap:round;stroke-linejoin:round;stroke-miterlimit:10;" d="&#10;&#9;&#9;&#9;M155.429,228.304c0,0-12.286-10.327-26.774-5.963c-13.303,4.007-15.164,19.347-5.539,25.621c0,0,9.444,4.213,19.919,8.077&#10;&#9;&#9;&#9;c25.215,9.301,14.353,33.695-5.945,33.695c-10.165,0-18.696-4.451-23.86-10.149"/>
	</g>
	<g>
		
			<line style="fill:none;stroke:#000000;stroke-width:20;stroke-linecap:round;stroke-linejoin:round;stroke-miterlimit:10;" x1="366.761" y1="257.056" x2="397.771" y2="289.734"/>
		
			<line style="fill:none;stroke:#000000;stroke-width:20;stroke-linecap:round;stroke-linejoin:round;stroke-miterlimit:10;" x1="360.775" y1="256.933" x2="360.753" y2="289.734"/>
		<path style="fill:none;stroke:#000000;stroke-width:20;stroke-linecap:round;stroke-linejoin:round;stroke-miterlimit:10;" d="&#10;&#9;&#9;&#9;M397.771,239.06c0,9.827-8.617,17.873-18.801,17.873l-18.194,0l0-35.667c0,0,12.227,0,18.194,0&#10;&#9;&#9;&#9;C389.154,221.266,397.771,229.232,397.771,239.06z"/>
	</g>
	<g>
		
			<line style="fill:none;stroke:#000000;stroke-width:20;stroke-linecap:round;stroke-linejoin:round;stroke-miterlimit:10;" x1="191.004" y1="259.995" x2="191.004" y2="289.734"/>
		<path style="fill:none;stroke:#000000;stroke-width:20;stroke-linecap:round;stroke-linejoin:round;stroke-miterlimit:10;" d="&#10;&#9;&#9;&#9;M229.769,240.588c0,10.671-9.029,19.407-19.7,19.407l-19.065,0l0-38.729c0,0,12.811,0,19.065,0&#10;&#9;&#9;&#9;C220.74,221.266,229.769,229.916,229.769,240.588z"/>
	</g>
	<g>
		
			<line style="fill:none;stroke:#000000;stroke-width:20;stroke-linecap:round;stroke-linejoin:round;stroke-miterlimit:10;" x1="303.301" y1="267.554" x2="325.204" y2="289.458"/>
		
			<circle style="fill:none;stroke:#000000;stroke-width:20;stroke-linecap:round;stroke-linejoin:round;stroke-miterlimit:10;" cx="290.706" cy="255.5" r="34.234"/>
	</g>
	<path style="fill:none;stroke:#000000;stroke-width:20;stroke-linecap:round;stroke-linejoin:round;stroke-miterlimit:10;" d="&#10;&#9;&#9;M123.741,438.466c18.255-18.041,41.576-26.32,61.079-23.644c2.45,19.537-6.102,42.759-24.356,60.801&#10;&#9;&#9;c-16.298,16.108-36.636,24.434-54.691,24.126c-3.743-0.064-6.781-3.139-6.8-6.883C98.883,474.808,107.447,454.57,123.741,438.466z"/>
	<path style="fill:none;stroke:#000000;stroke-width:20;stroke-linecap:round;stroke-linejoin:round;stroke-miterlimit:10;" d="&#10;&#9;&#9;M124.028,389.562c18.041,18.255,41.264,26.807,60.797,24.36c2.68-19.507-5.599-42.828-23.64-61.083&#10;&#9;&#9;c-16.108-16.298-36.346-24.862-54.404-24.767c-3.744,0.02-6.818,3.059-6.88,6.802C99.6,352.931,107.925,373.268,124.028,389.562z"/>
	<path style="fill:none;stroke:#000000;stroke-width:20;stroke-linecap:round;stroke-linejoin:round;stroke-miterlimit:10;" d="&#10;&#9;&#9;M234.503,439.088c18.255-18.041,41.576-26.32,61.079-23.644c2.45,19.537-6.102,42.759-24.356,60.801&#10;&#9;&#9;c-16.298,16.108-36.636,24.434-54.691,24.126c-3.743-0.064-6.781-3.139-6.8-6.883C209.645,475.429,218.209,455.192,234.503,439.088&#10;&#9;&#9;z"/>
	<path style="fill:none;stroke:#000000;stroke-width:20;stroke-linecap:round;stroke-linejoin:round;stroke-miterlimit:10;" d="&#10;&#9;&#9;M234.79,390.183c18.041,18.255,41.264,26.807,60.797,24.36c2.68-19.507-5.599-42.828-23.64-61.083&#10;&#9;&#9;c-16.108-16.298-36.346-24.862-54.404-24.767c-3.744,0.02-6.818,3.059-6.88,6.802C210.362,353.552,218.687,373.889,234.79,390.183z&#10;&#9;&#9;"/>
	<path style="fill:none;stroke:#000000;stroke-width:20;stroke-linecap:round;stroke-linejoin:round;stroke-miterlimit:10;" d="&#10;&#9;&#9;M345.265,439.709c18.255-18.041,41.576-26.32,61.079-23.644c2.45,19.537-6.102,42.759-24.356,60.801&#10;&#9;&#9;c-16.298,16.108-36.636,24.434-54.691,24.126c-3.743-0.064-6.781-3.139-6.8-6.883C320.407,476.051,328.971,455.813,345.265,439.709&#10;&#9;&#9;z"/>
	<path style="fill:none;stroke:#000000;stroke-width:20;stroke-linecap:round;stroke-linejoin:round;stroke-miterlimit:10;" d="&#10;&#9;&#9;M345.552,390.805c18.041,18.255,41.264,26.807,60.797,24.36c2.68-19.507-5.599-42.828-23.64-61.083&#10;&#9;&#9;c-16.108-16.298-36.346-24.862-54.404-24.767c-3.744,0.02-6.818,3.059-6.88,6.802C321.124,354.173,329.449,374.51,345.552,390.805z&#10;&#9;&#9;"/>
	
		<line style="fill:none;stroke:#000000;stroke-width:20;stroke-linecap:round;stroke-linejoin:round;stroke-miterlimit:10;" x1="87.209" y1="415.778" x2="444.484" y2="415.778"/>
	<g>
		
			<line style="fill:none;stroke:#000000;stroke-width:20;stroke-linecap:round;stroke-linejoin:round;stroke-miterlimit:10;" x1="424.455" y1="95.222" x2="67.18" y2="95.222"/>
		
			<line style="fill:none;stroke:#000000;stroke-width:20;stroke-linecap:round;stroke-linejoin:round;stroke-miterlimit:10;" x1="469.231" y1="95.222" x2="469.231" y2="95.222"/>
	</g>
	
		<line style="fill:none;stroke:#000000;stroke-width:20;stroke-linecap:round;stroke-linejoin:round;stroke-miterlimit:10;" x1="41.769" y1="414.953" x2="41.769" y2="414.953"/>
</g>















</svg>
