<?xml version="1.0" encoding="UTF-8" standalone="no"?>
<!-- Created with Inkscape (http://www.inkscape.org/) -->

<svg
   version="1.1"
   id="svg501"
   xml:space="preserve"
   width="682.66669"
   height="682.66669"
   viewBox="0 0 682.66669 682.66669"
   xmlns="http://www.w3.org/2000/svg"
   xmlns:svg="http://www.w3.org/2000/svg"><defs
     id="defs505"><clipPath
       clipPathUnits="userSpaceOnUse"
       id="clipPath515"><path
         d="M 0,512 H 512 V 0 H 0 Z"
         id="path513" /></clipPath></defs><g
     id="g507"
     transform="matrix(1.3333333,0,0,-1.3333333,0,682.66667)"><g
       id="g509"><g
         id="g511"
         clip-path="url(#clipPath515)"><g
           id="g517"
           transform="translate(273.9057,396.3389)"><path
             d="m 0,0 c 30.199,-8.497 54.423,-36.792 54.423,-69.708 v -43.146 H -89.246 v 43.146 c 0,33.304 23.692,61.57 54.437,69.706"
             style="fill:none;stroke:#000000;stroke-width:30;stroke-linecap:butt;stroke-linejoin:miter;stroke-miterlimit:10;stroke-dasharray:none;stroke-opacity:1"
             id="path519" /></g><g
           id="g521"
           transform="translate(298.4087,434.4679)"><path
             d="m 0,0 c 0,-23.149 -18.766,-41.914 -41.914,-41.914 -23.149,0 -41.914,18.765 -41.914,41.914 0,23.149 18.765,41.914 41.914,41.914 C -18.766,41.914 0,23.149 0,0 Z"
             style="fill:none;stroke:#000000;stroke-width:30;stroke-linecap:butt;stroke-linejoin:miter;stroke-miterlimit:10;stroke-dasharray:none;stroke-opacity:1"
             id="path523" /></g><g
           id="g525"
           transform="translate(104.2457,148.4716)"><path
             d="m 0,0 c 30.199,-8.497 54.423,-36.792 54.423,-69.708 v -43.146 H -89.246 v 43.146 c 0,33.304 23.692,61.57 54.437,69.706"
             style="fill:none;stroke:#000000;stroke-width:30;stroke-linecap:butt;stroke-linejoin:miter;stroke-miterlimit:10;stroke-dasharray:none;stroke-opacity:1"
             id="path527" /></g><g
           id="g529"
           transform="translate(128.7487,186.6005)"><path
             d="m 0,0 c 0,-23.149 -18.766,-41.914 -41.914,-41.914 -23.149,0 -41.914,18.765 -41.914,41.914 0,23.149 18.765,41.914 41.914,41.914 C -18.766,41.914 0,23.149 0,0 Z"
             style="fill:none;stroke:#000000;stroke-width:30;stroke-linecap:butt;stroke-linejoin:miter;stroke-miterlimit:10;stroke-dasharray:none;stroke-opacity:1"
             id="path531" /></g><g
           id="g533"
           transform="translate(442.5766,148.4716)"><path
             d="m 0,0 c 30.199,-8.497 54.423,-36.792 54.423,-69.708 v -43.146 H -89.246 v 43.146 c 0,33.304 23.692,61.57 54.437,69.706"
             style="fill:none;stroke:#000000;stroke-width:30;stroke-linecap:butt;stroke-linejoin:miter;stroke-miterlimit:10;stroke-dasharray:none;stroke-opacity:1"
             id="path535" /></g><g
           id="g537"
           transform="translate(467.0796,186.6005)"><path
             d="m 0,0 c 0,-23.149 -18.766,-41.914 -41.914,-41.914 -23.149,0 -41.914,18.765 -41.914,41.914 0,23.149 18.765,41.914 41.914,41.914 C -18.766,41.914 0,23.149 0,0 Z"
             style="fill:none;stroke:#000000;stroke-width:30;stroke-linecap:butt;stroke-linejoin:miter;stroke-miterlimit:10;stroke-dasharray:none;stroke-opacity:1"
             id="path539" /></g><g
           id="g541"
           transform="translate(232.6339,160.695)"><path
             d="M 0,0 -79.978,-54.047"
             style="fill:none;stroke:#000000;stroke-width:30;stroke-linecap:butt;stroke-linejoin:miter;stroke-miterlimit:10;stroke-dasharray:none;stroke-opacity:1"
             id="path543" /></g><g
           id="g545"
           transform="translate(256,283.4853)"><path
             d="M 0,0 V -78.839"
             style="fill:none;stroke:#000000;stroke-width:30;stroke-linecap:butt;stroke-linejoin:miter;stroke-miterlimit:10;stroke-dasharray:none;stroke-opacity:1"
             id="path547" /></g><g
           id="g549"
           transform="translate(279.3196,160.695)"><path
             d="M 0,0 79.819,-54.047"
             style="fill:none;stroke:#000000;stroke-width:30;stroke-linecap:butt;stroke-linejoin:miter;stroke-miterlimit:10;stroke-dasharray:none;stroke-opacity:1"
             id="path551" /></g><g
           id="g553"
           transform="translate(284.1612,176.4853)"><path
             d="m 0,0 c 0,-15.553 -12.608,-28.161 -28.161,-28.161 -15.553,0 -28.161,12.608 -28.161,28.161 0,15.553 12.608,28.161 28.161,28.161 C -12.608,28.161 0,15.553 0,0 Z"
             style="fill:none;stroke:#000000;stroke-width:30;stroke-linecap:butt;stroke-linejoin:miter;stroke-miterlimit:10;stroke-dasharray:none;stroke-opacity:1"
             id="path555" /></g></g></g></g></svg>
