<svg id="Capa_1" enable-background="new 0 0 512 512" height="512" viewBox="0 0 512 512" width="512" xmlns="http://www.w3.org/2000/svg"><path d="m314.182 127.158c-27.277 0-49.469 22.191-49.469 49.469s22.191 49.47 49.469 49.47 49.469-22.192 49.469-49.47-22.192-49.469-49.469-49.469zm0 68.938c-10.735 0-19.469-8.734-19.469-19.47s8.733-19.469 19.469-19.469 19.469 8.733 19.469 19.469-8.734 19.47-19.469 19.47z"/><path d="m193.242 92.689c-27.277 0-49.469 22.191-49.469 49.469s22.191 49.469 49.469 49.469 49.469-22.191 49.469-49.469-22.191-49.469-49.469-49.469zm0 68.937c-10.735 0-19.469-8.733-19.469-19.469s8.733-19.469 19.469-19.469 19.469 8.733 19.469 19.469-8.733 19.469-19.469 19.469z"/><path d="m157.669 235.674c0-27.277-22.192-49.469-49.47-49.469s-49.469 22.192-49.469 49.469 22.191 49.469 49.469 49.469 49.47-22.191 49.47-49.469zm-68.939 0c0-10.735 8.733-19.469 19.469-19.469s19.47 8.733 19.47 19.469-8.734 19.469-19.47 19.469-19.469-8.733-19.469-19.469z"/><path d="m149.763 297.046c-27.277 0-49.469 22.191-49.469 49.469s22.191 49.469 49.469 49.469 49.47-22.191 49.47-49.469-22.193-49.469-49.47-49.469zm0 68.938c-10.735 0-19.469-8.733-19.469-19.469s8.733-19.469 19.469-19.469 19.47 8.733 19.47 19.469-8.735 19.469-19.47 19.469z"/><path d="m512 133.263c0-15.16-9.298-35.21-28.425-61.297-13.103-17.868-26.032-31.975-26.577-32.566l-11.042-12.011-11.042 12.011c-.544.592-13.475 14.697-26.577 32.566-7.051 9.616-12.761 18.409-17.167 26.442-.815-.841-1.613-1.695-2.443-2.525-43.009-43.008-100.193-66.694-161.017-66.694-60.991 0-118.221 23.64-161.146 66.565-42.924 42.925-66.564 100.155-66.564 161.147 0 60.823 23.687 118.007 66.695 161.016s100.192 66.694 161.016 66.694c2.436 0 4.896-.039 7.312-.116 10.439-.33 19.941-5.366 26.07-13.817 6.076-8.381 7.899-18.872 5.002-28.786-3.47-11.865-5.106-24.226-4.865-36.739 1.252-64.95 55.121-118.634 120.083-119.67 3.498-.059 6.985.041 10.454.281l11.895 194.115h84.589l14.494-236.533-15.786-58.364c15.24-12.109 25.041-30.785 25.041-51.719zm-66.044-60.825c17.238 20.907 36.044 48.388 36.044 60.825 0 19.875-16.169 36.045-36.044 36.045s-36.045-16.17-36.045-36.045c0-12.438 18.806-39.919 36.045-60.825zm-65.122 183.048c-39.434.629-76.647 16.418-104.784 44.457-28.139 28.042-44.055 65.2-44.814 104.631-.3 15.56 1.74 30.947 6.064 45.736.357 1.222-.071 2.173-.494 2.756-.376.52-1.231 1.396-2.735 1.444-2.102.066-4.241.101-6.359.101-109.02 0-197.712-88.693-197.712-197.71 0-109.019 88.692-197.712 197.71-197.712 61.197 0 115.985 27.95 152.278 71.753-.047.785-.077 1.561-.077 2.321 0 20.933 9.801 39.609 25.042 51.718l-15.786 58.364.752 12.272c-3.023-.134-6.053-.18-9.085-.131zm51.046 194.392-3.303-53.895h34.757l-3.303 53.895zm40.62-203.453-7.327 119.559h-38.435l-7.327-119.559 13.116-48.493c4.338.9 8.828 1.375 13.429 1.375 4.6 0 9.09-.476 13.428-1.375z"/></svg>