<svg id="Capa_1" enable-background="new 0 0 512.004 512.004" height="512" viewBox="0 0 512.004 512.004" width="512" xmlns="http://www.w3.org/2000/svg"><path d="m512.002 361.504h-66.583l-28.595-49.597-102.154-35.314-8.242-32.396c21.577-16.487 35.638-43.249 35.638-73.409v-49.987c8.983-6.474 20.222-19.637 20.222-45.03 0-41.778-33.989-75.767-75.768-75.767h-30.435c-14.022-.183-31.323 5.155-43.719 14.229-23.85 16.051-43.277 1-62.651-8.285v56.039c0 20.561 7.151 40.119 20.222 55.755v53.046c0 30.16 14.061 56.922 35.638 73.409l-8.242 32.396-102.153 35.314-28.595 49.597h-66.583v90.25h33.973l18.125 60.25h407.803l18.125-60.25h33.973v-90.25zm-101.213 0h-78.47l21.25-39.721 42.861 14.817zm-85.935-49.647-19.88 37.16-25.749-33.266 23.828-11.43zm-48.152 49.647h-41.4l20.7-26.744zm-84.942-264.46c-7.799-9.988-12.044-22.226-12.044-35.057v-11.306c16.947 2.634 33.984-1.281 49.521-11.639 6.622-5.044 17.529-9.176 26.766-9.038h30.519c27.021-.016 48.873 24.067 45.423 51.489-10.031-14.319-29.397-22.225-47.94-20.722-17.286 22.129-44.765 36.461-73.326 36.273zm8.177 30h10.741c32.287 0 63.145-12.843 85.859-35.485 8.947 2.513 15.528 10.745 15.528 20.485v58.744c0 33.44-25.15 60.646-56.064 60.646s-56.064-27.205-56.064-60.646zm56.065 134.389c7.969 0 15.687-1.152 23.017-3.297l5.542 21.782-28.559 13.698-28.559-13.698 5.542-21.782c7.329 2.146 15.047 3.297 23.017 3.297zm-47.052 42.887 23.828 11.43-25.749 33.266-19.88-37.16zm-93.377 32.28 42.862-14.817 21.25 39.721h-78.471zm322.027 145.404h-363.197l-9.1-30.25h381.397zm44.402-60.25h-452v-30.25h452z"/></svg>