<svg id="Capa_1" enable-background="new 0 0 511.728 511.728" height="512" viewBox="0 0 511.728 511.728" width="512" xmlns="http://www.w3.org/2000/svg"><g><path d="m441.539 265.394c12.69-41.51 8.457-85.478-11.921-123.803-39.693-74.652-129.706-105.688-206.203-73.618l-14.433-27.145c11.359-4.968 23.204-8.851 35.371-11.532l-6.456-29.296c-48.848 10.762-93.226 38.181-124.959 77.205-32.197 39.592-49.928 89.552-49.928 140.677 0 59.598 23.209 115.629 65.352 157.772 38.587 38.587 88.821 61.287 142.772 64.845v41.229h-68.855v30h167.711v-30h-68.856v-41.229c51.878-3.45 100.633-24.733 138.624-60.821l-20.662-21.751c-9.103 8.647-18.922 16.309-29.313 22.938l-14.436-27.149c31.714-20.751 54.974-51.632 66.192-88.322zm-259.02-130.086c.024 4.042.218 8.235.597 12.58 1.465 16.779 5.529 35.117 11.824 54.008l-41.166 21.888c-1.371-31.871 8.847-63.436 28.745-88.476zm48.312-35.957c9.207 0 22.214 6.137 36.007 17.303 10.237 8.287 20.428 18.786 30.172 30.972l-75.187 39.978c-4.651-14.887-7.674-29.209-8.82-42.325-1.986-22.743 2.2-39.752 10.924-44.391 1.942-1.034 4.267-1.537 6.904-1.537zm97.366 96.166c4.299 8.085 8.2 16.209 11.686 24.284l-82.217 43.716c-4.744-7.405-9.297-15.185-13.595-23.269-4.299-8.085-8.2-16.209-11.686-24.284l82.217-43.716c4.744 7.405 9.296 15.185 13.595 23.269zm31.069 94.969c1.986 22.743-2.2 39.752-10.925 44.391-8.725 4.638-25.166-1.402-42.911-15.767-10.237-8.287-20.428-18.785-30.172-30.971l75.188-39.978c4.652 14.887 7.675 29.209 8.82 42.325zm-153.428-60.408c3.558 8.097 7.466 16.206 11.744 24.253 4.277 8.044 8.801 15.833 13.522 23.308l-46.914 24.945c-5.704-6.893-10.755-14.412-15.052-22.495-4.33-8.144-7.719-16.542-10.211-25.068zm42.541 72.353c12.144 15.787 25.082 29.397 38.176 39.996 3.427 2.774 6.829 5.297 10.201 7.596-16.43 1.317-33.127-.462-49.363-5.426-14.697-4.493-28.25-11.358-40.245-20.243zm164.47-45.808c-4.963 16.233-12.822 31.068-23.098 43.951-.02-4.078-.216-8.31-.599-12.697-1.465-16.779-5.529-35.117-11.824-54.008l41.243-21.929c.659 14.911-1.229 29.986-5.722 44.683zm-9.72-100.949c4.297 8.082 7.706 16.474 10.231 25.058l-46.93 24.953c-3.558-8.097-7.466-16.206-11.745-24.253-4.277-8.044-8.801-15.833-13.522-23.307l46.886-24.93c5.676 6.834 10.749 14.334 15.08 22.479zm-38.091-44.22-41.149 21.879c-12.143-15.788-25.082-29.398-38.176-39.997-3.388-2.743-6.753-5.247-10.089-7.525 3.432-.268 6.864-.415 10.288-.415 28.386 0 56.233 9.142 79.126 26.058zm-78.904 299.552c-106.489 0-193.124-86.635-193.124-193.124 0-44.252 15.343-87.49 43.203-121.75 13.177-16.204 28.873-30.089 46.297-41.187l14.416 27.112c-69.364 45.485-93.968 137.464-54.276 212.116 20.378 38.326 54.461 66.422 95.972 79.113 15.7 4.8 31.751 7.179 47.716 7.179 21.345 0 42.536-4.254 62.524-12.658l14.441 27.16c-24.074 10.502-50.255 16.039-77.169 16.039z"/></g></svg>