<svg id="Capa_1" enable-background="new 0 0 512 512" height="512" viewBox="0 0 512 512" width="512" xmlns="http://www.w3.org/2000/svg"><g><path d="m278.167 165.729c-6.595-29.772-23.158-56.664-47.42-76.113l-9.382-7.521-9.382 7.521c-24.262 19.449-40.825 46.341-47.42 76.113-18.866-10.038-40.38-15.729-63.198-15.729h-15v15c0 74.439 60.561 135 135 135s135-60.561 135-135v-15h-15c-22.818 0-44.333 5.691-63.198 15.729zm-160.546 15.527c44.909 7.008 80.479 42.579 87.487 87.487-44.908-7.008-80.479-42.578-87.487-87.487zm74.228 3.663c2.291-23.946 12.723-46.279 29.516-63.407 16.793 17.128 27.225 39.461 29.516 63.407-11.982 10.843-22.027 23.79-29.516 38.269-7.489-14.479-17.534-27.426-29.516-38.269zm45.772 83.825c7.008-44.909 42.579-80.479 87.487-87.487-7.008 44.908-42.578 80.478-87.487 87.487z"/><path d="m416.332 191.393c-1.935-105.862-88.651-191.393-194.967-191.393-107.523 0-195 87.477-195 195 0 52.891 21.786 103.688 60 140.432v176.568h210v-62h120v-120h69.271zm-29.967 108.607v120h-120v62h-150v-159.802c-1.414-1.898-60-44.875-60-127.198 0-90.981 74.019-165 165-165s165 74.019 165 165v3.541l50.729 101.459z"/></g></svg>