<svg id="Layer_1" enable-background="new 0 0 512 512" height="512" viewBox="0 0 512 512" width="512" xmlns="http://www.w3.org/2000/svg"><g><path d="m256 0c-141.385 0-256 114.615-256 256s114.615 256 256 256 256-114.615 256-256-114.615-256-256-256zm0 482c-60.367 0-117.12-23.508-159.806-66.194-10.621-10.621-20.053-22.114-28.232-34.316 20.447 12.72 43.574 19.503 67.538 19.503 74.715 0 135.5-60.785 135.5-135.5v-18.986c0-58.173 47.327-105.5 105.5-105.5 27.603 0 53.965 11.989 74.227 33.76 18.328 19.692 29.439 45.473 31.059 71.61.133 3.197.214 6.404.214 9.623 0 60.367-23.508 117.12-66.194 159.806s-99.439 66.194-159.806 66.194zm0-452c60.367 0 117.12 23.508 159.806 66.194 10.662 10.662 20.128 22.202 28.329 34.457-20.479-12.812-43.641-19.644-67.635-19.644-74.715 0-135.5 60.785-135.5 135.5v18.986c0 58.173-47.327 105.5-105.5 105.5-27.63 0-53.993-11.936-74.231-33.609-18.412-19.717-29.536-45.61-31.058-71.864-.13-3.163-.21-6.335-.21-9.52 0-60.367 23.508-117.12 66.194-159.806 42.685-42.687 99.438-66.194 159.805-66.194z"/><path d="m376.5 200.999c-30.327 0-55 24.673-55 55s24.673 55 55 55 55-24.673 55-55-24.673-55-55-55zm0 80.001c-13.785 0-25-11.215-25-25s11.215-25 25-25 25 11.215 25 25-11.215 25-25 25z"/><path d="m135.5 311c30.327 0 55-24.673 55-55s-24.673-55-55-55-55 24.673-55 55 24.673 55 55 55zm0-80.001c13.785 0 25 11.215 25 25s-11.215 25-25 25-25-11.215-25-25 11.215-25 25-25z"/></g></svg>