<svg id="Capa_1" enable-background="new 0 0 512.177 512.177" height="512" viewBox="0 0 512.177 512.177" width="512" xmlns="http://www.w3.org/2000/svg"><g id="XMLID_21_"><path id="XMLID_109_" d="m253.539 344.562c-23.168 23.158-60.718 23.385-84.163.676l-.688-.688c-23.445-23.439-23.451-61.393.003-84.844l116.665-116.678-106.062-106.061-116.677 116.678c-82.064 82.062-82.077 214.906 0 296.983 82.059 82.06 214.921 82.072 296.994 0l116.665-116.676-106.062-106.065zm-10.609-201.531-31.285 31.288-63.639-63.64 31.287-31.287zm95.467 286.383c-70.338 70.337-184.222 70.346-254.567 0-70.341-70.342-70.351-184.207 0-254.557l42.964-42.965 63.64 63.641-42.956 42.961c-62.096 62.096-.035 127.185.002 127.285 35.088 35.076 92.181 35.076 127.27-.002l42.964-42.965 63.64 63.641zm64.168-64.176-63.638-63.638 31.287-31.287 63.637 63.639z"/><path id="XMLID_115_" d="m361.113 180h30c0-33.084-26.916-60-60-60v30c16.542 0 30 13.459 30 30z"/><path id="XMLID_116_" d="m421.113 180h30c0-66.168-53.832-120-120-120v30c49.626 0 90 40.375 90 90z"/><path id="XMLID_117_" d="m331.113 0v30c82.71 0 150 67.291 150 150h30c0-99.252-80.748-180-180-180z"/></g></svg>