<svg id="Capa_1" enable-background="new 0 0 511.998 511.998" height="512" viewBox="0 0 511.998 511.998" width="512" xmlns="http://www.w3.org/2000/svg"><g><path d="m481.999 511.998h-203.5v-152.499l9.353-3.802c20.719-8.421 39.422-25.389 52.662-47.777 14.056-23.769 21.485-52.097 21.485-81.922 0-74.99-47.552-136-106-136s-106 61.01-106 136c0 29.826 7.43 58.154 21.485 81.922 13.24 22.389 31.942 39.356 52.662 47.777l9.353 3.802v152.499h-203.5v-120h30c0 8.271 6.729 15 15 15h45.653c-22.759-17.036-42.213-38.279-57.235-62.679-22.072-35.85-33.627-77.165-33.415-119.479.302-60.242 24.512-116.99 68.168-159.79 21.166-20.75 45.671-36.955 72.834-48.165 28.207-11.64 57.96-17.301 88.407-16.862 59.651.884 115.589 24.783 157.511 67.294 41.966 42.556 65.077 98.909 65.077 158.682 0 72.17-33.972 138.727-90.592 181h45.592c8.271 0 15-6.729 15-15h30zm-173.5-30h143.5v-47.57c-4.693 1.664-9.743 2.57-15 2.57h-98.5v-32.931l8.059-4.207c65.039-33.949 105.441-100.569 105.441-173.862 0-51.838-20.043-100.711-56.438-137.616-36.358-36.869-84.868-57.596-136.596-58.362-.969-.014-1.945-.021-2.913-.021-51.158 0-99.661 19.986-136.881 56.476-37.895 37.15-58.908 86.344-59.17 138.518-.37 73.722 40.032 140.728 105.438 174.869l8.059 4.207v32.931h-98.5c-5.257 0-10.307-.906-15-2.57v47.57h143.5v-102.779c-50.332-25.575-83.5-85.695-83.5-153.223 0-43.73 13.756-84.981 38.734-116.152 25.759-32.145 60.302-49.848 97.266-49.848 36.965 0 71.507 17.703 97.266 49.848 24.979 31.171 38.734 72.422 38.734 116.152 0 67.527-33.168 127.646-83.5 153.223v102.777z"/></g></svg>