<?xml version="1.0" encoding="UTF-8" standalone="no"?>
<!-- Created with Inkscape (http://www.inkscape.org/) -->

<svg
   version="1.1"
   id="svg762"
   xml:space="preserve"
   width="682.66669"
   height="682.66669"
   viewBox="0 0 682.66669 682.66669"
   xmlns="http://www.w3.org/2000/svg"
   xmlns:svg="http://www.w3.org/2000/svg"><defs
     id="defs766"><clipPath
       clipPathUnits="userSpaceOnUse"
       id="clipPath788"><path
         d="M 0,512 H 512 V 0 H 0 Z"
         id="path786" /></clipPath></defs><g
     id="g768"
     transform="matrix(1.3333333,0,0,-1.3333333,0,682.66667)"><g
       id="g770"
       transform="translate(196,346)"><path
         d="M 0,0 -60,-60 0,-120"
         style="fill:none;stroke:#000000;stroke-width:30;stroke-linecap:butt;stroke-linejoin:miter;stroke-miterlimit:10;stroke-dasharray:none;stroke-opacity:1"
         id="path772" /></g><g
       id="g774"
       transform="translate(316,346)"><path
         d="M 0,0 60,-60 0,-120"
         style="fill:none;stroke:#000000;stroke-width:30;stroke-linecap:butt;stroke-linejoin:miter;stroke-miterlimit:10;stroke-dasharray:none;stroke-opacity:1"
         id="path776" /></g><g
       id="g778"
       transform="translate(286,391)"><path
         d="M 0,0 -60,-210"
         style="fill:none;stroke:#000000;stroke-width:30;stroke-linecap:butt;stroke-linejoin:miter;stroke-miterlimit:10;stroke-dasharray:none;stroke-opacity:1"
         id="path780" /></g><g
       id="g782"><g
         id="g784"
         clip-path="url(#clipPath788)"><g
           id="g790"
           transform="translate(45,136)"><path
             d="M 0,0 V 300 H 422 V 0"
             style="fill:none;stroke:#000000;stroke-width:30;stroke-linecap:butt;stroke-linejoin:miter;stroke-miterlimit:10;stroke-dasharray:none;stroke-opacity:1"
             id="path792" /></g><g
           id="g794"
           transform="translate(437,76)"><path
             d="m 0,0 h -362 c -33.137,0 -60,26.863 -60,60 H 60 C 60,26.863 33.137,0 0,0 Z"
             style="fill:none;stroke:#000000;stroke-width:30;stroke-linecap:butt;stroke-linejoin:miter;stroke-miterlimit:10;stroke-dasharray:none;stroke-opacity:1"
             id="path796" /></g></g></g></g></svg>
