<svg id="Capa_1" enable-background="new 0 0 512 512" height="512" viewBox="0 0 512 512" width="512" xmlns="http://www.w3.org/2000/svg"><g><path d="m512 0h-512v102.901h38.001v69.154h51.505v339.945h332.987v-339.946h51.505v-69.154h38.002zm-306.382 480.26h-29.037v-218.845c0-8.005 6.513-14.518 14.519-14.518s14.519 6.513 14.519 14.518v218.845zm129.801 0h-29.037v-218.845c0-8.005 6.513-14.518 14.519-14.518s14.519 6.513 14.519 14.518v218.845zm56.056 0h-25.093v-218.845c0-25.078-20.403-45.481-45.481-45.481s-45.481 20.403-45.481 45.481v218.845h-38.839v-218.845c0-25.078-20.403-45.481-45.481-45.481s-45.481 20.403-45.481 45.481v218.845h-25.093v-307.237h270.95v307.237zm53.442-337.288h-377.834v-40.072h377.833v40.072zm37.143-71.782h-452.12v-38.757h452.12z"/></g></svg>