<svg id="Capa_1" enable-background="new 0 0 510.333 510.333" height="512" viewBox="0 0 510.333 510.333" width="512" xmlns="http://www.w3.org/2000/svg"><g id="XMLID_782_"><path id="XMLID_785_" d="m77.329 390.87c-7.143-3.525-15.174-5.515-23.665-5.515-29.59 0-53.664 24.074-53.664 53.664 0 29.591 24.074 53.665 53.664 53.665 29.591 0 53.665-24.074 53.665-53.665v-148.549l138.026-47.642v90.046c-7.143-3.525-15.174-5.515-23.665-5.515-29.59 0-53.664 24.074-53.664 53.665 0 29.59 24.074 53.664 53.664 53.664 29.591 0 53.665-24.074 53.665-53.664v-245.3l-198.026 68.352zm-23.665 71.814c-13.048 0-23.664-10.616-23.664-23.665 0-13.048 10.616-23.664 23.664-23.664 13.049 0 23.665 10.616 23.665 23.664 0 13.049-10.616 23.665-23.665 23.665zm168.026-57.997c-13.048 0-23.664-10.616-23.664-23.664 0-13.049 10.616-23.665 23.664-23.665 13.049 0 23.665 10.616 23.665 23.665-.001 13.049-10.616 23.664-23.665 23.664zm23.664-226.871v33.275l-138.026 47.642v-33.275z"/><path id="XMLID_790_" d="m487.917 85.134c-14.665-23.997-35.645-43.461-60.671-56.289l-21.842-11.196v200.648c-7.143-3.525-15.174-5.515-23.665-5.515-29.59 0-53.664 24.074-53.664 53.665 0 29.59 24.074 53.664 53.664 53.664 29.591 0 53.665-24.074 53.665-53.664v-196.635c28.193 23.011 44.93 57.555 44.93 94.989v27.752h30v-27.752c-.001-28.122-7.752-55.671-22.417-79.667zm-106.178 204.977c-13.048 0-23.664-10.616-23.664-23.664 0-13.049 10.616-23.665 23.664-23.665 13.049 0 23.665 10.616 23.665 23.665-.001 13.048-10.616 23.664-23.665 23.664z"/></g></svg>