<svg id="Capa_1" enable-background="new 0 0 512.562 512.562" height="512" viewBox="0 0 512.562 512.562" width="512" xmlns="http://www.w3.org/2000/svg"><path d="m442.136 512.562-49.438-95.372 25.771-143.472c2.435-13.552.776-27.371-4.796-39.965l-103.443-233.753-13.589 5.746c-19.021 8.042-33.111 23.217-40.361 41.197-7.25-17.98-21.34-33.155-40.362-41.197l-13.588-5.745-103.44 233.752c-5.572 12.592-7.231 26.411-4.796 39.965l25.771 143.472-49.438 95.372h167.394l18.462-51.21 18.462 51.21zm-185.855-408.922 19.766 57.708c-7.487 1.976-14.243 5.771-19.766 10.881-5.522-5.11-12.279-8.905-19.766-10.881zm-39.536 378.922h-96.977l31.428-60.628-27.575-153.52c-1.372-7.638-.437-15.426 2.703-22.521l90.498-204.503c13.081 11.812 18.542 30.74 12.554 48.222l-25.755 75.191c-15.218 7.696-25.676 23.487-25.676 41.675v103.459h30v-103.459c0-9.19 7.477-16.668 16.668-16.668s16.668 7.478 16.668 16.668v208.023zm54.536-276.084c0-9.19 7.478-16.668 16.668-16.668s16.668 7.478 16.668 16.668v103.459h30v-103.459c0-18.188-10.457-33.979-25.676-41.675l-25.755-75.191c-5.988-17.481-.527-36.41 12.554-48.221l90.499 204.502c3.14 7.097 4.074 14.884 2.702 22.521l-27.575 153.521 31.428 60.628h-96.977l-24.536-68.061z"/></svg>